<svg width="396" height="32" viewBox="0 0 396 32" fill="none" xmlns="http://www.w3.org/2000/svg">
<path d="M2.32357 1.7121L12.4331 27.3121L22.3389 1.7121H24.6217L12.3108 32L0 1.7121H2.32357Z" fill="#142032"/>
<path d="M28.908 1.7121H47.8634V3.62802H39.3436V30.6548H37.3462V3.62802H28.908V1.7121Z" fill="#142032"/>
<path d="M54.7586 1.7121H72.6134V3.62802H56.7561V15.1236H71.0236V17.0395H56.7561V28.7389H73.1841V30.6548H54.7586V1.7121Z" fill="#142032"/>
<path d="M77.9401 30.6548L87.479 15.7758L78.3478 1.7121H80.8344L88.9873 14.2268L96.7732 1.7121H99.1376L90.0471 15.8981L99.6675 30.6548H97.1401L88.5796 17.4471L80.386 30.6548H77.9401Z" fill="#142032"/>
<path d="M118.572 1.7121H120.57V28.7389H136.427V30.6548H118.572V1.7121Z" fill="#142032"/>
<path d="M144.969 20.8713C144.969 22.5563 145.309 24.0102 145.988 25.2331C146.694 26.4561 147.646 27.4072 148.841 28.0866C150.037 28.7389 151.396 29.065 152.918 29.065C154.467 29.065 155.839 28.7389 157.035 28.0866C158.258 27.4072 159.209 26.4561 159.889 25.2331C160.595 24.0102 160.948 22.5563 160.948 20.8713V1.7121H162.905V20.9936C162.905 23.0862 162.457 24.8798 161.56 26.3745C160.69 27.8692 159.494 29.0106 157.973 29.7987C156.478 30.5868 154.793 30.9809 152.918 30.9809C151.043 30.9809 149.344 30.5868 147.822 29.7987C146.328 29.0106 145.145 27.8692 144.276 26.3745C143.406 24.8798 142.971 23.0862 142.971 20.9936V1.7121H144.969V20.8713Z" fill="#142032"/>
<path d="M169.103 30.6548L178.641 15.7758L169.51 1.7121H171.997L180.15 14.2268L187.936 1.7121H190.3L181.21 15.8981L190.83 30.6548H188.303L179.742 17.4471L171.548 30.6548H169.103Z" fill="#142032"/>
<path d="M199.069 20.8713C199.069 22.5563 199.409 24.0102 200.088 25.2331C200.795 26.4561 201.746 27.4072 202.942 28.0866C204.137 28.7389 205.496 29.065 207.018 29.065C208.567 29.065 209.94 28.7389 211.135 28.0866C212.358 27.4072 213.309 26.4561 213.989 25.2331C214.695 24.0102 215.049 22.5563 215.049 20.8713V1.7121H217.005V20.9936C217.005 23.0862 216.557 24.8798 215.66 26.3745C214.791 27.8692 213.595 29.0106 212.073 29.7987C210.578 30.5868 208.893 30.9809 207.018 30.9809C205.143 30.9809 203.444 30.5868 201.923 29.7987C200.428 29.0106 199.246 27.8692 198.376 26.3745C197.506 24.8798 197.072 23.0862 197.072 20.9936V1.7121H199.069V20.8713Z" fill="#142032"/>
<path d="M232.66 1.7121C233.747 1.7121 234.821 1.87516 235.881 2.20127C236.968 2.50021 237.946 2.98938 238.816 3.66879C239.712 4.32102 240.433 5.16348 240.976 6.19618C241.52 7.22888 241.791 8.46539 241.791 9.90573C241.791 11.5363 241.397 13.0854 240.609 14.5529C239.848 16.0204 238.571 17.1074 236.777 17.814L244.604 30.6548H242.281L234.698 18.344C234.019 18.4527 233.299 18.507 232.538 18.507H228.054V30.6548H226.056V1.7121H232.66ZM232.416 16.5911C234.345 16.5911 235.84 16.2514 236.9 15.572C237.96 14.8654 238.693 14.0093 239.101 13.0038C239.536 11.9711 239.753 10.9656 239.753 9.98726C239.753 8.84586 239.468 7.79958 238.897 6.84841C238.354 5.87006 237.565 5.09554 236.533 4.52484C235.527 3.92696 234.332 3.62802 232.946 3.62802H228.054V16.5911H232.416Z" fill="#142032"/>
<path d="M259.004 20.3414L248.201 1.7121H250.647L260.063 18.0994L269.398 1.7121H271.803L261.001 20.3414V30.6548H259.004V20.3414Z" fill="#142032"/>
<path d="M311.662 30.6548H309.338L306.607 27.1083C305.792 28.2225 304.65 29.1465 303.183 29.8803C301.715 30.614 300.044 30.9809 298.169 30.9809C296.348 30.9809 294.731 30.614 293.318 29.8803C291.905 29.1465 290.79 28.1682 289.975 26.9452C289.16 25.6951 288.752 24.3091 288.752 22.7873C288.752 21.3197 289.133 20.0017 289.894 18.8331C290.655 17.6645 291.646 16.6998 292.869 15.9389C294.12 15.1507 295.465 14.648 296.905 14.4306L294.296 11.0471C293.943 10.4764 293.59 9.81062 293.236 9.04968C292.883 8.26157 292.706 7.37834 292.706 6.4C292.706 5.17707 292.992 4.09002 293.562 3.13885C294.133 2.16051 294.921 1.39958 295.927 0.856052C296.959 0.285351 298.128 0 299.432 0C300.71 0 301.878 0.244586 302.938 0.733758C304.025 1.19575 304.936 1.72569 305.669 2.32357L304.691 3.66879C303.876 3.07091 303.047 2.59533 302.204 2.24204C301.389 1.88875 300.56 1.7121 299.718 1.7121C298.277 1.7121 297.082 2.16051 296.131 3.05732C295.207 3.92696 294.745 5.04119 294.745 6.4C294.745 7.02505 294.84 7.62293 295.03 8.19363C295.247 8.76433 295.451 9.22633 295.641 9.57962C295.859 9.93291 295.981 10.1367 296.008 10.1911L306.322 23.6841L309.827 14.3083H311.784L307.545 25.3147L311.662 30.6548ZM290.872 22.7465C290.872 24.0238 291.212 25.1516 291.891 26.1299C292.57 27.0811 293.481 27.8285 294.622 28.372C295.764 28.9155 297.014 29.1873 298.373 29.1873C299.976 29.1873 301.403 28.8476 302.653 28.1682C303.93 27.4616 304.868 26.6191 305.466 25.6408L298.047 15.9389C296.905 15.9932 295.777 16.3193 294.663 16.9172C293.576 17.4879 292.666 18.276 291.932 19.2815C291.225 20.2871 290.872 21.442 290.872 22.7465Z" fill="#142032"/>
<path d="M352.857 28.7389C351.933 29.3096 350.778 29.8395 349.392 30.3287C348.034 30.7907 346.512 31.0081 344.827 30.9809C342.625 30.9809 340.628 30.6004 338.834 29.8395C337.041 29.0514 335.505 27.9915 334.228 26.6599C332.951 25.3011 331.959 23.752 331.252 22.0127C330.573 20.2463 330.233 18.3711 330.233 16.3873C330.233 14.2675 330.6 12.2972 331.334 10.4764C332.068 8.65563 333.1 7.06582 334.432 5.70701C335.763 4.34819 337.313 3.28832 339.079 2.52739C340.845 1.76645 342.761 1.38599 344.827 1.38599C346.349 1.38599 347.775 1.58981 349.107 1.99745C350.439 2.4051 351.648 2.93503 352.735 3.58726L351.879 5.42166C350.928 4.82378 349.854 4.32102 348.659 3.91338C347.463 3.50573 346.199 3.30191 344.868 3.30191C343.155 3.30191 341.538 3.64161 340.017 4.32102C338.495 4.97325 337.149 5.89724 335.981 7.09299C334.84 8.26157 333.943 9.63397 333.29 11.2102C332.638 12.7864 332.312 14.4849 332.312 16.3057C332.312 18.6429 332.828 20.7762 333.861 22.7057C334.894 24.6352 336.348 26.1843 338.223 27.3529C340.098 28.4943 342.313 29.065 344.868 29.065C346.281 29.065 347.572 28.8747 348.74 28.4943C349.936 28.0866 350.996 27.5839 351.92 26.986L352.857 28.7389Z" fill="#142032"/>
<path d="M358.418 16.2242C358.418 14.186 358.798 12.2837 359.559 10.5172C360.32 8.72357 361.38 7.14735 362.739 5.78854C364.098 4.40255 365.66 3.32909 367.427 2.56815C369.22 1.78004 371.136 1.38599 373.175 1.38599C375.213 1.38599 377.129 1.78004 378.922 2.56815C380.716 3.32909 382.292 4.40255 383.651 5.78854C385.01 7.14735 386.07 8.72357 386.831 10.5172C387.619 12.2837 388.013 14.186 388.013 16.2242C388.013 18.2624 387.619 20.1783 386.831 21.972C386.07 23.7384 385.01 25.3011 383.651 26.6599C382.292 28.0187 380.716 29.0786 378.922 29.8395C377.129 30.6004 375.213 30.9809 373.175 30.9809C371.136 30.9809 369.22 30.614 367.427 29.8803C365.66 29.1465 364.098 28.1138 362.739 26.7822C361.38 25.4505 360.32 23.8879 359.559 22.0943C358.798 20.3006 358.418 18.344 358.418 16.2242ZM360.456 16.265C360.456 18.0314 360.782 19.6892 361.434 21.2382C362.087 22.7873 362.997 24.1461 364.166 25.3147C365.334 26.4832 366.679 27.4072 368.201 28.0866C369.75 28.7389 371.395 29.065 373.134 29.065C374.927 29.065 376.599 28.7389 378.148 28.0866C379.697 27.4072 381.056 26.4832 382.224 25.3147C383.393 24.1461 384.303 22.7873 384.955 21.2382C385.635 19.6892 385.975 18.0178 385.975 16.2242C385.975 14.4578 385.635 12.8 384.955 11.251C384.303 9.67474 383.393 8.30234 382.224 7.13376C381.056 5.938 379.697 5.00042 378.148 4.32102C376.599 3.64161 374.941 3.30191 373.175 3.30191C371.381 3.30191 369.71 3.6552 368.161 4.36178C366.611 5.04119 365.253 5.97877 364.084 7.17452C362.943 8.37028 362.046 9.75626 361.394 11.3325C360.769 12.8815 360.456 14.5257 360.456 16.265Z" fill="#142032"/>
<path d="M392.958 29.2688C392.958 28.8883 393.094 28.5622 393.365 28.2904C393.637 28.0187 393.95 27.8828 394.303 27.8828C394.656 27.8828 394.969 28.0187 395.24 28.2904C395.539 28.5622 395.689 28.8883 395.689 29.2688C395.689 29.6764 395.539 30.0161 395.24 30.2879C394.969 30.5325 394.656 30.6548 394.303 30.6548C393.95 30.6548 393.637 30.5325 393.365 30.2879C393.094 30.0161 392.958 29.6764 392.958 29.2688Z" fill="#142032"/>
</svg>
